<svg width="20" height="22" viewBox="0 0 20 22" fill="none" xmlns="http://www.w3.org/2000/svg">
<path d="M7.54548 20.1818C7.99735 20.1818 8.36366 19.8155 8.36366 19.3637C8.36366 18.9118 7.99735 18.5455 7.54548 18.5455C7.09361 18.5455 6.72729 18.9118 6.72729 19.3637C6.72729 19.8155 7.09361 20.1818 7.54548 20.1818Z" stroke="#9B9B9B" stroke-width="2" stroke-linecap="round" stroke-linejoin="round"/>
<path d="M16.5455 20.1818C16.9973 20.1818 17.3637 19.8155 17.3637 19.3637C17.3637 18.9118 16.9973 18.5455 16.5455 18.5455C16.0936 18.5455 15.7273 18.9118 15.7273 19.3637C15.7273 19.8155 16.0936 20.1818 16.5455 20.1818Z" stroke="#9B9B9B" stroke-width="2" stroke-linecap="round" stroke-linejoin="round"/>
<path d="M7 7V1H11V7H7Z" fill="#7A7A7A" stroke="#7A7A7A"/>
<path d="M13 7V3H19V7H13Z" fill="#7A7A7A" stroke="#7A7A7A"/>
<path d="M8 15V8H7V15H8Z" fill="#7A7A7A"/>
<path d="M10 15V8H9V15H10Z" fill="#7A7A7A"/>
<path d="M12 15V8H11V15H12Z" fill="#7A7A7A"/>
<path d="M14 15V8H13V15H14Z" fill="#7A7A7A"/>
<path d="M16 15V8H15V15H16Z" fill="#7A7A7A"/>
<path d="M18 15V8H17V15H18Z" fill="#7A7A7A"/>
<path d="M18 11V10H6V11H18Z" fill="#7A7A7A"/>
<path d="M18 14V13H6V14H18Z" fill="#7A7A7A"/>
<path d="M1 3H4.27273L6.46545 13.9555C6.54027 14.3321 6.7452 14.6705 7.04436 14.9113C7.34351 15.1522 7.71784 15.2801 8.10182 15.2727H16.0545C16.4385 15.2801 16.8129 15.1522 17.112 14.9113C17.4112 14.6705 17.6161 14.3321 17.6909 13.9555L19 7.09091H5.09091" stroke="#9B9B9B" stroke-width="2" stroke-linecap="round" stroke-linejoin="round"/>
</svg>
